<svg xmlns="http://www.w3.org/2000/svg" width="64" height="64" viewBox="0 0 64 64" fill="none">
  <defs>
    <linearGradient id="gradient1" x1="0%" y1="0%" x2="100%" y2="100%">
      <stop offset="0%" stop-color="#3b82f6" />
      <stop offset="100%" stop-color="#8b5cf6" />
    </linearGradient>
    <linearGradient id="gradient2" x1="0%" y1="100%" x2="100%" y2="0%">
      <stop offset="0%" stop-color="#2563eb" />
      <stop offset="100%" stop-color="#7c3aed" />
    </linearGradient>
    <filter id="shadow" x="-20%" y="-20%" width="140%" height="140%">
      <feDropShadow dx="0" dy="2" stdDeviation="2" flood-color="#000" flood-opacity="0.3"/>
    </filter>
  </defs>
  
  <!-- 背景圆形 -->
  <circle cx="32" cy="32" r="30" fill="url(#gradient1)" />
  
  <!-- 装饰性元素：数据连接点 -->
  <circle cx="18" cy="20" r="2" fill="#ffffff" opacity="0.6" />
  <circle cx="24" cy="48" r="2" fill="#ffffff" opacity="0.6" />
  <circle cx="46" cy="25" r="2" fill="#ffffff" opacity="0.6" />
  <circle cx="42" cy="42" r="2" fill="#ffffff" opacity="0.6" />
  
  <!-- 连接线 -->
  <path d="M18 20 L46 25" stroke="#ffffff" stroke-width="1" opacity="0.4" />
  <path d="M18 20 L24 48" stroke="#ffffff" stroke-width="1" opacity="0.4" />
  <path d="M46 25 L42 42" stroke="#ffffff" stroke-width="1" opacity="0.4" />
  <path d="M24 48 L42 42" stroke="#ffffff" stroke-width="1" opacity="0.4" />
  
  <!-- R字母 -->
  <path d="M22 16 L22 48 L28 48 L28 34 L36 34 L42 48 L49 48 L42 32 C45 30 47 27 47 23 C47 18 43 16 38 16 Z M28 22 L38 22 C40 22 41 22.5 41 24 C41 25.5 40 26 38 26 L28 26 Z" 
        fill="#ffffff" filter="url(#shadow)" />
        
  <!-- 装饰性外环 -->
  <circle cx="32" cy="32" r="30" stroke="#ffffff" stroke-width="1.5" fill="none" opacity="0.2" />
</svg> 